<svg width="28" height="29" viewBox="0 0 28 29" fill="none" xmlns="http://www.w3.org/2000/svg">
<path d="M28 14.5985C28 22.3305 21.732 28.5985 14 28.5985C6.26801 28.5985 0 22.3305 0 14.5985C0 6.86652 6.26801 0.598511 14 0.598511C21.732 0.598511 28 6.86652 28 14.5985Z" fill="#B4B4B4"/>
<path d="M20.233 24.7785C19.663 24.7785 19.128 24.6685 18.628 24.4485C18.133 24.2235 17.7005 23.9085 17.3305 23.5035C16.9605 23.0985 16.683 22.6235 16.498 22.0785L18.118 21.4785C18.343 21.9585 18.658 22.3485 19.063 22.6485C19.473 22.9485 19.913 23.0985 20.383 23.0985C20.833 23.0985 21.2005 22.9835 21.4855 22.7535C21.7705 22.5235 21.913 22.1885 21.913 21.7485C21.913 21.4635 21.813 21.211 21.613 20.991C21.413 20.766 21.148 20.561 20.818 20.376C20.493 20.191 20.138 20.0135 19.753 19.8435C19.418 19.6985 19.0805 19.536 18.7405 19.356C18.4055 19.176 18.0955 18.9635 17.8105 18.7185C17.5305 18.4735 17.303 18.186 17.128 17.856C16.958 17.526 16.873 17.1385 16.873 16.6935C16.873 16.1885 17.0055 15.726 17.2705 15.306C17.5355 14.886 17.9105 14.551 18.3955 14.301C18.8805 14.046 19.453 13.9185 20.113 13.9185C20.903 13.9185 21.5805 14.131 22.1455 14.556C22.7155 14.981 23.093 15.5135 23.278 16.1535L21.673 16.6935C21.523 16.3835 21.308 16.1235 21.028 15.9135C20.748 15.7035 20.408 15.5985 20.008 15.5985C19.633 15.5985 19.3155 15.6935 19.0555 15.8835C18.8005 16.0735 18.673 16.3335 18.673 16.6635C18.673 16.8935 18.7455 17.0935 18.8905 17.2635C19.0405 17.4335 19.258 17.5985 19.543 17.7585C19.833 17.9185 20.188 18.0985 20.608 18.2985C20.948 18.4585 21.298 18.6385 21.658 18.8385C22.018 19.0335 22.353 19.261 22.663 19.521C22.978 19.781 23.2305 20.086 23.4205 20.436C23.6155 20.786 23.713 21.1935 23.713 21.6585C23.713 22.3235 23.5505 22.8885 23.2255 23.3535C22.9055 23.8185 22.4805 24.1735 21.9505 24.4185C21.4255 24.6585 20.853 24.7785 20.233 24.7785Z" fill="#121212"/>
<path d="M11.5755 24.7785C10.8205 24.7785 10.1505 24.5885 9.56547 24.2085C8.98547 23.8285 8.54047 23.2935 8.23047 22.6035L9.76047 21.8685C9.89547 22.1285 10.0455 22.3485 10.2105 22.5285C10.3805 22.7085 10.5755 22.846 10.7955 22.941C11.0205 23.036 11.2855 23.0835 11.5905 23.0835C11.8755 23.0835 12.148 23.026 12.408 22.911C12.673 22.791 12.888 22.576 13.053 22.266C13.218 21.956 13.3005 21.5135 13.3005 20.9385V14.0985H15.0705V21.0285C15.0705 21.7685 14.963 22.3835 14.748 22.8735C14.533 23.3585 14.253 23.741 13.908 24.021C13.563 24.296 13.1855 24.491 12.7755 24.606C12.3655 24.721 11.9655 24.7785 11.5755 24.7785Z" fill="#121212"/>
</svg>
