<svg width="107" height="28" viewBox="0 0 107 28" fill="none" xmlns="http://www.w3.org/2000/svg">
<path d="M6.15288 7.41255C5.82396 7.89951 5.46755 8.49469 5.1112 8.87343C4.75485 9.25216 4.12434 9.98263 3.74061 10.4155C3.35682 10.8483 3.02785 11.2811 2.50704 11.9845C1.98617 12.6879 1.43792 13.5807 1.05419 14.3382C0.670396 15.0957 0.314043 16.0966 0.176967 16.8C0.0398914 17.5034 -0.0971846 18.5314 0.0947106 19.7218C0.286606 20.9121 0.670396 21.7507 1.10901 22.6435C1.54756 23.5362 2.17806 24.2937 2.91821 25.1053C3.65835 25.9169 4.28886 26.2686 5.08382 26.7014C5.87878 27.1343 6.86564 27.513 7.7428 27.7024C8.62002 27.8918 9.71652 28 10.3744 28C11.0323 28 12.2933 27.8647 12.7319 27.7836C13.0828 27.7186 13.6456 27.5762 13.8832 27.513H12.8964C12.5674 27.513 11.8821 27.486 10.9227 27.3237C9.96323 27.1614 8.72966 26.7285 8.23623 26.5121C7.7428 26.2957 6.89302 25.7816 6.26252 25.3218C5.63207 24.8619 5.029 24.1855 4.70003 23.6986C4.37106 23.2116 3.95989 22.2647 3.76799 21.6154C3.5761 20.9662 3.41164 19.9923 3.46646 19.1807C3.52128 18.3691 3.93245 16.9082 4.17916 16.1778C4.42588 15.4473 5.1112 14.3111 5.52237 13.6889C5.9336 13.0667 6.70113 12.1739 7.22199 11.6058C7.7428 11.0377 8.43018 10.4093 9.00381 10.0096C9.4698 9.68504 10.1266 9.54975 10.4567 9.54975C10.7856 9.54975 11.2242 9.64942 11.608 9.92849C12.0466 10.2475 12.3755 10.6048 12.6497 11.2271C12.9238 11.8493 13.0334 12.4715 13.1156 13.5807C13.1979 14.6899 12.9512 15.8531 12.8141 16.4753C12.6771 17.0976 12.2659 17.801 11.8821 18.3961C11.5751 18.8723 11.0963 19.2979 10.8953 19.4512C11.1237 19.3971 11.7012 19.2186 12.1837 18.9372C12.7867 18.5855 13.6639 17.8821 14.267 17.0705C14.8215 16.3243 15.2264 15.4744 15.528 14.5816C15.7692 13.8675 15.9209 12.9494 15.9666 12.5797C16.0853 12.7961 16.3668 13.4129 16.5422 14.1488C16.7615 15.0686 16.7889 16.313 16.5422 17.5575C16.2955 18.8019 15.5828 19.9381 14.9523 20.7768C14.3218 21.6155 13.6365 22.1295 12.8964 22.5623C12.1562 22.9952 11.4983 23.1845 10.3744 23.3198C9.25053 23.4551 7.90732 23.2386 7.19456 23.1034C6.62437 22.9952 5.82396 22.7517 5.49499 22.6435C5.73254 22.9681 6.36121 23.7202 6.97528 24.1314C7.7428 24.6454 8.8393 25.2406 10.2648 25.4029C11.6902 25.5652 12.8416 25.3218 13.9929 24.7266C15.1442 24.1314 16.131 22.9952 16.6793 22.1295C17.2275 21.2638 17.9951 19.9111 18.1048 17.828C18.2144 15.7449 18.2418 14.9333 17.4743 12.4715C16.7705 10.2141 15.7747 8.38285 14.3492 6.60099C12.7045 4.54493 11.9369 3.94975 10.4292 2.8406C8.83208 1.66559 7.46871 1.05507 6.15288 0.595167C5.45306 0.350564 4.48075 0.135266 3.60353 0C3.90507 0.135266 4.54101 0.595167 5.1112 1.13622C5.82396 1.81255 6.50923 2.7594 6.81076 4.24734C7.03243 5.3411 6.45441 6.81737 6.15288 7.41255Z" fill="url(#paint0_linear_1068_476)"/>
<path d="M101.639 24.674C100.796 24.674 100.04 24.5379 99.372 24.2655C98.7181 23.9931 98.1587 23.5988 97.6938 23.0827C97.2434 22.5667 96.8947 21.943 96.6477 21.2119C96.4007 20.4808 96.2771 19.6636 96.2771 18.7604C96.2771 17.8573 96.4007 17.0401 96.6477 16.309C96.8947 15.5779 97.2434 14.9614 97.6938 14.4596C98.1587 13.9436 98.7181 13.5493 99.372 13.2769C100.04 13.0045 100.796 12.8684 101.639 12.8684C102.481 12.8684 103.23 13.0045 103.883 13.2769C104.552 13.5493 105.111 13.9436 105.562 14.4596C106.027 14.9614 106.382 15.5779 106.63 16.309C106.877 17.0401 107 17.8573 107 18.7604C107 19.6636 106.877 20.4808 106.63 21.2119C106.382 21.943 106.027 22.5667 105.562 23.0827C105.111 23.5988 104.552 23.9931 103.883 24.2655C103.23 24.5379 102.481 24.674 101.639 24.674ZM101.639 22.1581C102.278 22.1581 102.772 21.9645 103.121 21.5775C103.469 21.1904 103.644 20.6385 103.644 19.9217V17.6207C103.644 16.9039 103.469 16.352 103.121 15.9649C102.772 15.5779 102.278 15.3843 101.639 15.3843C100.999 15.3843 100.505 15.5779 100.157 15.9649C99.8078 16.352 99.6335 16.9039 99.6335 17.6207V19.9217C99.6335 20.6385 99.8078 21.1904 100.157 21.5775C100.505 21.9645 100.999 22.1581 101.639 22.1581Z" fill="white"/>
<path d="M88.2914 24.416V13.1264H91.5169V15.5778H91.6259C91.684 15.2625 91.7857 14.9614 91.931 14.6747C92.0763 14.3736 92.2652 14.1084 92.4977 13.879C92.7447 13.6497 93.0353 13.4705 93.3695 13.3414C93.7036 13.1981 94.0959 13.1264 94.5463 13.1264H95.113V16.0939H94.3066C93.3622 16.0939 92.6575 16.2158 92.1926 16.4595C91.7421 16.7032 91.5169 17.1548 91.5169 17.8143V24.416H88.2914Z" fill="white"/>
<path d="M74.3759 24.416V9.40619H81.5681C82.28 9.40619 82.9193 9.52805 83.486 9.77176C84.0527 10.0011 84.5322 10.3237 84.9244 10.7394C85.3313 11.1552 85.6437 11.6641 85.8616 12.2662C86.0795 12.854 86.1885 13.4991 86.1885 14.2016C86.1885 14.9184 86.0795 15.5707 85.8616 16.1585C85.6437 16.7462 85.3313 17.248 84.9244 17.6637C84.5322 18.0795 84.0527 18.4092 83.486 18.6529C82.9193 18.8823 82.28 18.997 81.5681 18.997H77.6887V24.416H74.3759ZM77.6887 16.1585H81.1758C81.6698 16.1585 82.0548 16.0366 82.3309 15.7929C82.6215 15.5348 82.7668 15.1621 82.7668 14.6747V13.7285C82.7668 13.2411 82.6215 12.8755 82.3309 12.6318C82.0548 12.3737 81.6698 12.2447 81.1758 12.2447H77.6887V16.1585Z" fill="white"/>
<path d="M61.2186 24.416V13.1264H64.4442V15.0403H64.5749C64.7783 14.4525 65.1343 13.9436 65.6429 13.5135C66.1514 13.0834 66.8561 12.8684 67.7569 12.8684C68.9338 12.8684 69.8201 13.2554 70.4158 14.0296C71.0261 14.8037 71.3312 15.9076 71.3312 17.3412V24.416H68.1056V17.5992C68.1056 16.8681 67.9894 16.3305 67.7569 15.9864C67.5244 15.628 67.1103 15.4488 66.5146 15.4488C66.2531 15.4488 65.9988 15.4847 65.7518 15.5564C65.5048 15.6137 65.2796 15.714 65.0762 15.8574C64.8873 16.0008 64.7348 16.18 64.6185 16.395C64.5023 16.5957 64.4442 16.8323 64.4442 17.1046V24.416H61.2186Z" fill="white"/>
<path d="M52.4072 24.416V13.1264H55.6327V15.5778H55.7417C55.7998 15.2625 55.9015 14.9614 56.0468 14.6747C56.1921 14.3736 56.381 14.1084 56.6135 13.879C56.8605 13.6497 57.1511 13.4705 57.4853 13.3414C57.8194 13.1981 58.2117 13.1264 58.6622 13.1264H59.2288V16.0939H58.4224C57.478 16.0939 56.7733 16.2158 56.3084 16.4595C55.8579 16.7032 55.6327 17.1548 55.6327 17.8143V24.416H52.4072Z" fill="white"/>
<path d="M46.1804 22.5236H46.0714C45.9697 22.8104 45.8317 23.0827 45.6573 23.3408C45.4975 23.5988 45.2868 23.8282 45.0253 24.0289C44.7638 24.2296 44.4514 24.3873 44.0882 24.502C43.7394 24.6167 43.3326 24.674 42.8677 24.674C41.6908 24.674 40.7972 24.2941 40.1869 23.5343C39.5912 22.7602 39.2934 21.6563 39.2934 20.2227V13.1264H42.5189V19.9432C42.5189 20.6313 42.6425 21.1617 42.8895 21.5345C43.1365 21.9072 43.5578 22.0936 44.1535 22.0936C44.4005 22.0936 44.6475 22.0577 44.8945 21.986C45.1415 21.9144 45.3595 21.814 45.5484 21.685C45.7373 21.5416 45.8898 21.3696 46.0061 21.1689C46.1223 20.9682 46.1804 20.7316 46.1804 20.4593V13.1264H49.406V24.416H46.1804V22.5236Z" fill="white"/>
<path d="M25.0618 9.40619H32.4501C33.7142 9.40619 34.6949 9.75743 35.3923 10.4599C36.1043 11.1624 36.4603 12.0942 36.4603 13.2554C36.4603 13.8289 36.3804 14.3163 36.2205 14.7177C36.0752 15.1191 35.8718 15.4488 35.6103 15.7069C35.3633 15.9649 35.0654 16.1585 34.7167 16.2875C34.3825 16.4022 34.0193 16.4667 33.627 16.481V16.61C33.9902 16.61 34.368 16.6745 34.7603 16.8036C35.1671 16.9326 35.5376 17.1405 35.8718 17.4272C36.206 17.6996 36.4821 18.058 36.7 18.5024C36.9325 18.9468 37.0487 19.4916 37.0487 20.1367C37.0487 20.7245 36.947 21.2836 36.7436 21.814C36.5547 22.3301 36.2859 22.7817 35.9372 23.1688C35.5885 23.5558 35.1744 23.864 34.6949 24.0934C34.2154 24.3085 33.6924 24.416 33.1257 24.416H25.0618V9.40619ZM28.3745 21.6635H32.1886C32.6244 21.6635 32.9659 21.5488 33.2129 21.3194C33.4744 21.0757 33.6052 20.7388 33.6052 20.3087V19.5776C33.6052 19.1475 33.4744 18.8178 33.2129 18.5884C32.9659 18.3447 32.6244 18.2228 32.1886 18.2228H28.3745V21.6635ZM28.3745 15.5563H31.6655C32.1014 15.5563 32.4428 15.4345 32.6898 15.1908C32.9368 14.9471 33.0603 14.6102 33.0603 14.1801V13.535C33.0603 13.1049 32.9368 12.768 32.6898 12.5243C32.4428 12.2806 32.1014 12.1587 31.6655 12.1587H28.3745V15.5563Z" fill="white"/>
<defs>
<linearGradient id="paint0_linear_1068_476" x1="-26.2091" y1="28" x2="139.366" y2="28" gradientUnits="userSpaceOnUse">
<stop stop-color="#FF58A2"/>
<stop offset="1" stop-color="#CA58FF"/>
</linearGradient>
</defs>
</svg>
